<svg id="Capa_1" data-name="Capa 1" xmlns="http://www.w3.org/2000/svg" viewBox="0 0 192.75 101.34"><defs><style>.cls-1,.cls-4{fill:#55ade2;}.cls-2{font-size:24.83px;fill:#1d1d1b;}.cls-2,.cls-3,.cls-4{font-family:FrutigerLTStd-Black, Frutiger LT Std;font-weight:800;}.cls-3{font-size:24.31px;fill:#0277b0;}.cls-4{font-size:42.35px;}</style></defs><path class="cls-1" d="M166.31,80.2a6.67,6.67,0,0,1-6-3.72L157,70.26l-1.89,3.6a2.26,2.26,0,0,1-.16.26,6,6,0,0,1-4.78,2.33h0a6.59,6.59,0,0,1-4.6-2,6.84,6.84,0,0,1-2-4.85V41.11A6.61,6.61,0,0,1,154.36,36l14.5,10.8a2.2,2.2,0,0,1-2.63,3.53L151.68,39.51l-.11-.08a2.17,2.17,0,0,0-2.35-.31,2.15,2.15,0,0,0-1.27,2V69.62A2.39,2.39,0,0,0,150.17,72h0a1.73,1.73,0,0,0,1.13-.41l3.72-7.1A2.2,2.2,0,0,1,157,63.35h0a2.2,2.2,0,0,1,1.94,1.17l5.3,9.92a.36.36,0,0,1,0,.09,2.25,2.25,0,0,0,3,1.06,2.2,2.2,0,0,0,1.17-1.28,2.18,2.18,0,0,0-.07-1.68L163,63.1a2.2,2.2,0,0,1,1.92-3.28h7.55a2.18,2.18,0,0,0,1.92-1.38,2.22,2.22,0,0,0-.43-2.39,2.2,2.2,0,0,1,3.2-3,6.66,6.66,0,0,1-4.56,11.2h-3.91l3.54,6.31.06.11a6.65,6.65,0,0,1-3.19,8.94A6.63,6.63,0,0,1,166.31,80.2ZM146,32.48a2.21,2.21,0,0,0,.88-3L145,26.08a2.2,2.2,0,0,0-3.86,2.11l1.88,3.42a2.2,2.2,0,0,0,3,.87Zm-4.65,5a2.19,2.19,0,0,0-1.14-2.9l-3.52-1.54a2.2,2.2,0,1,0-1.76,4l3.52,1.54a2.15,2.15,0,0,0,.88.19A2.21,2.21,0,0,0,141.38,37.49Zm13.72-7.13,1.21-3.63a2.2,2.2,0,0,0-4.17-1.39L150.92,29a2.21,2.21,0,0,0,1.4,2.79,2.37,2.37,0,0,0,.69.11A2.19,2.19,0,0,0,155.1,30.36ZM160.93,36l3-2.2a2.2,2.2,0,1,0-2.62-3.54l-3,2.2a2.2,2.2,0,0,0-.46,3.08,2.21,2.21,0,0,0,3.08.46ZM136.88,48.34l3.3-1.32a2.2,2.2,0,1,0-1.64-4.09l-3.3,1.32a2.2,2.2,0,0,0,.82,4.24A2.37,2.37,0,0,0,136.88,48.34Z"/><text class="cls-2" transform="translate(33.67 80.2)">al</text><text class="cls-3" transform="translate(58.19 79.77)">Medic</text><text class="cls-4" transform="translate(29.53 57.35)">Click</text></svg>