<svg id="Capa_1" data-name="Capa 1" xmlns="http://www.w3.org/2000/svg" viewBox="0 0 40.49 42.76"><defs><style>.cls-1{fill:#55ade2;}</style></defs><path class="cls-1" d="M26,37.6a3.84,3.84,0,0,1-3.45-2.14l-1.91-3.58L19.57,34l-.1.15a3.41,3.41,0,0,1-2.75,1.34h0a3.79,3.79,0,0,1-2.64-1.14,4,4,0,0,1-1.15-2.79V15.11a3.8,3.8,0,0,1,6.22-2.93l8.35,6.21a1.27,1.27,0,1,1-1.52,2l-8.37-6.23-.06,0a1.27,1.27,0,0,0-2.09,1v16.4a1.39,1.39,0,0,0,1.28,1.4h0a1,1,0,0,0,.65-.24l2.14-4.09a1.27,1.27,0,0,1,1.11-.68h0a1.27,1.27,0,0,1,1.12.67l3,5.72s0,0,0,0a1.3,1.3,0,0,0,1.71.62,1.3,1.3,0,0,0,.63-1.71L24.1,27.76a1.27,1.27,0,0,1,1.1-1.89h4.34a1.26,1.26,0,0,0,1.11-.79,1.3,1.3,0,0,0-.25-1.38A1.27,1.27,0,0,1,32.24,22a3.83,3.83,0,0,1-2.62,6.45H27.37l2,3.63,0,.07a3.83,3.83,0,0,1-1.84,5.14A3.71,3.71,0,0,1,26,37.6ZM14.34,10.14a1.26,1.26,0,0,0,.5-1.72l-1.07-2a1.26,1.26,0,1,0-2.22,1.21l1.07,2a1.27,1.27,0,0,0,1.11.66A1.21,1.21,0,0,0,14.34,10.14ZM11.66,13A1.27,1.27,0,0,0,11,11.35l-2-.88a1.27,1.27,0,0,0-1,2.32l2,.88a1.1,1.1,0,0,0,.5.11A1.25,1.25,0,0,0,11.66,13Zm7.9-4.1.7-2.09A1.27,1.27,0,0,0,17.85,6l-.69,2.09a1.26,1.26,0,0,0,.8,1.6,1.12,1.12,0,0,0,.4.07A1.27,1.27,0,0,0,19.56,8.92Zm3.35,3.22,1.71-1.27a1.27,1.27,0,0,0-1.5-2L21.41,10.1a1.27,1.27,0,0,0,.75,2.29A1.23,1.23,0,0,0,22.91,12.14ZM9.07,19.26,11,18.5A1.27,1.27,0,1,0,10,16.15l-1.9.76a1.27,1.27,0,0,0,.47,2.45A1.1,1.1,0,0,0,9.07,19.26Z"/></svg>