<svg id="Capa_1" data-name="Capa 1" xmlns="http://www.w3.org/2000/svg" viewBox="0 0 390.53 154.44"><defs><style>.cls-1{fill:#fff;}</style></defs><path class="cls-1" d="M352.71,148.41a16.64,16.64,0,0,1-14.94-9.27l-8.27-15.48-4.69,9a5.59,5.59,0,0,1-.41.66,14.82,14.82,0,0,1-11.89,5.79h-.09A16.46,16.46,0,0,1,301,134.13a17,17,0,0,1-5-12.07v-71a16.45,16.45,0,0,1,26.93-12.69l36.13,26.9a5.49,5.49,0,0,1-6.55,8.8l-36.26-27-.26-.21a5.48,5.48,0,0,0-9,4.19v71a6,6,0,0,0,5.52,6h0a4.26,4.26,0,0,0,2.83-1l9.26-17.67a5.48,5.48,0,0,1,4.83-2.94h0a5.48,5.48,0,0,1,4.83,2.9l13.21,24.73.1.21a5.6,5.6,0,0,0,10.32-.54,5.56,5.56,0,0,0-.18-4.2l-13.32-23.71a5.49,5.49,0,0,1,4.78-8.18H368a5.41,5.41,0,0,0,4.77-3.43,5.55,5.55,0,0,0-1.07-6,5.48,5.48,0,0,1,8-7.52,16.57,16.57,0,0,1-11.35,27.89h-9.76l8.83,15.71c.06.1.11.2.16.3a16.55,16.55,0,0,1-14.85,23.78ZM302.2,29.54a5.47,5.47,0,0,0,2.17-7.44l-4.66-8.5a5.48,5.48,0,1,0-9.62,5.27l4.66,8.5a5.48,5.48,0,0,0,7.45,2.17ZM290.6,42a5.49,5.49,0,0,0-2.82-7.23L279,31A5.49,5.49,0,0,0,274.6,41l8.78,3.84a5.36,5.36,0,0,0,2.2.46A5.49,5.49,0,0,0,290.6,42Zm34.19-17.74,3-9a5.48,5.48,0,1,0-10.4-3.47l-3,9a5.47,5.47,0,0,0,3.47,6.93,5.24,5.24,0,0,0,1.73.29A5.51,5.51,0,0,0,324.79,24.28ZM339.3,38.19l7.4-5.48a5.48,5.48,0,1,0-6.52-8.82l-7.41,5.49a5.48,5.48,0,1,0,6.53,8.81ZM279.39,69l8.23-3.29a5.48,5.48,0,0,0-4.08-10.18l-8.23,3.29A5.48,5.48,0,1,0,279.39,69Z"/><path class="cls-1" d="M46.87,148.41c-.07-1.73-.25-3.4-.25-5.07h-.13c-2.53,4-5.62,5.81-10.2,5.81-6.37,0-12.06-3.15-12.06-10.14,0-9.84,10.7-11,16.64-11a33.48,33.48,0,0,1,5.19.43c-.06-4.39-3.34-5.56-7.36-5.56a20.92,20.92,0,0,0-10.26,2.41l-.19-7.55a33.45,33.45,0,0,1,12.86-2.28c8.23,0,15.34,3.52,15.34,13.35v12a39.09,39.09,0,0,0,.62,7.61Zm-7.67-6.68c4.2,0,6.86-3.84,6.86-7.61-1.42-.06-3-.18-4.7-.18-3.77,0-6.74,1.17-6.74,4.26C34.62,140.43,36.6,141.73,39.2,141.73Z"/><path class="cls-1" d="M64.86,102H76v46.38H64.86Z"/><path class="cls-1" d="M87,105.06h17.75l9,28.11h.12l9.39-28.11h17.08v42.28h-11l.19-32.46h-.12l-10.79,32.46H108.22l-10.3-32.46H97.8L98,147.34H87Z"/><path class="cls-1" d="M156.85,134.74c.6,4.36,3.93,6.06,9.26,6.06a20.38,20.38,0,0,0,9.63-2.43v7.7a31.66,31.66,0,0,1-11.57,2c-10.41,0-18.35-6.11-18.35-16.53s7.09-16.47,16.9-16.47c11.69,0,15.93,8.29,15.93,17.68v2Zm12-6.18c0-3.63-1.7-6.6-6.06-6.6-3.94,0-5.81,3-6.06,6.6Z"/><path class="cls-1" d="M218.25,147.34H208.2v-5.63h-.12c-1.4,3.51-5.82,6.35-10.84,6.35-9.39,0-14.42-7.75-14.42-17.07,0-7.76,4.79-15.93,13.51-15.93,4.36,0,8,1.15,10.84,4.78h.12V101.92h11Zm-17.56-7.63c3.63,0,6.66-3.46,6.66-8.06,0-4.78-2.66-8.23-6.66-8.23-4.24,0-6.6,3.63-6.6,7.81C194.09,136.25,196.57,139.71,200.69,139.71Z"/><path class="cls-1" d="M237,110.64h-10.9v-8H237Zm-10.9,5.14H237v31.56h-10.9Z"/><path class="cls-1" d="M269.73,124.81a12,12,0,0,0-6.61-1.76c-4.72,0-8.35,3.27-8.35,8.72,0,5,4.24,8.3,9,8.3a15,15,0,0,0,6.78-1.51l.24,8.11a29.31,29.31,0,0,1-8.9,1.39c-10.41,0-18.35-6.05-18.35-16.47s7.94-16.53,18.35-16.53a19.59,19.59,0,0,1,8.66,1.75Z"/><path class="cls-1" d="M80.26,89.8a81.52,81.52,0,0,1-21.83,3C38.8,92.76,16.12,82.84,16.12,55c0-25.64,17.94-38.41,42.2-38.41,7.49,0,14.77,1.69,21.84,3.8L78.58,36.31a38.63,38.63,0,0,0-19.21-5.17c-13.92,0-23,10.13-23,23.85C36.38,69.44,46.61,78.2,61,78.2a51.76,51.76,0,0,0,18.35-3.8Z"/><path class="cls-1" d="M90.49,12.36h19V91.49h-19Z"/><path class="cls-1" d="M144.72,27.56h-19V13.63h19Zm-19,9h19v55h-19Z"/><path class="cls-1" d="M201.79,52.24a20.84,20.84,0,0,0-11.5-3.06c-8.23,0-14.56,5.7-14.56,15.2,0,8.75,7.39,14.45,15.61,14.45a26,26,0,0,0,11.82-2.64l.42,14.14a51.31,51.31,0,0,1-15.51,2.43c-18.14,0-32-10.55-32-28.7s13.82-28.8,32-28.8a34.14,34.14,0,0,1,15.09,3.06Z"/><path class="cls-1" d="M211.49,12.36h19V59.63h.21l15.83-23.11H267.3L248.2,61.74l20.68,29.75h-23L230.69,64.27h-.21V91.49h-19Z"/></svg>