<svg id="Capa_1" data-name="Capa 1" xmlns="http://www.w3.org/2000/svg" viewBox="0 0 390.53 154.44"><defs><style>.cls-1{fill:#55ade2;}.cls-2{fill:#1d1d1b;}.cls-3{fill:#0277b0;}</style></defs><path class="cls-1" d="M349.88,147.25A16.63,16.63,0,0,1,334.94,138l-8.27-15.48L322,131.45a5.59,5.59,0,0,1-.41.66,14.82,14.82,0,0,1-11.9,5.8h-.09A16.49,16.49,0,0,1,298.13,133a17,17,0,0,1-5-12.07v-71A16.46,16.46,0,0,1,320.09,37.2l36.13,26.91a5.48,5.48,0,1,1-6.55,8.79l-36.25-27-.26-.21a5.49,5.49,0,0,0-9,4.19v71a6,6,0,0,0,5.53,6h0a4.29,4.29,0,0,0,2.83-1l9.25-17.67a5.51,5.51,0,0,1,4.84-2.94h0a5.49,5.49,0,0,1,4.84,2.91l13.2,24.72a2.12,2.12,0,0,1,.11.21,5.6,5.6,0,0,0,10.32-.54,5.56,5.56,0,0,0-.18-4.2l-13.33-23.71a5.48,5.48,0,0,1,4.79-8.17h18.8a5.46,5.46,0,0,0,4.77-3.44,5.53,5.53,0,0,0-1.07-6,5.49,5.49,0,1,1,8-7.53,16.57,16.57,0,0,1-11.36,27.89h-9.75l8.83,15.71.15.29a16.54,16.54,0,0,1-14.84,23.78ZM299.37,28.39a5.5,5.5,0,0,0,2.17-7.45l-4.66-8.5a5.48,5.48,0,0,0-9.62,5.27l4.66,8.5a5.5,5.5,0,0,0,7.45,2.18Zm-11.6,12.47a5.48,5.48,0,0,0-2.83-7.22l-8.77-3.84a5.49,5.49,0,1,0-4.4,10.05l8.78,3.83a5.33,5.33,0,0,0,2.19.47A5.49,5.49,0,0,0,287.77,40.86ZM322,23.12l3-9a5.49,5.49,0,0,0-10.41-3.47l-3,9A5.49,5.49,0,0,0,322,23.12ZM336.47,37l7.4-5.48a5.48,5.48,0,1,0-6.53-8.81l-7.4,5.48A5.48,5.48,0,1,0,336.47,37ZM276.55,67.88l8.23-3.29a5.48,5.48,0,1,0-4.07-10.18l-8.23,3.29a5.49,5.49,0,0,0,2,10.58A5.36,5.36,0,0,0,276.55,67.88Z"/><path class="cls-2" d="M44,147.25c-.06-1.73-.25-3.4-.25-5.07h-.12C41.12,146.2,38,148,33.45,148c-6.36,0-12.05-3.15-12.05-10.14,0-9.83,10.69-11,16.63-11a32.46,32.46,0,0,1,5.2.44c-.07-4.4-3.34-5.57-7.36-5.57a21,21,0,0,0-10.27,2.41l-.18-7.54a33.23,33.23,0,0,1,12.86-2.29c8.22,0,15.34,3.52,15.34,13.36v12a39.8,39.8,0,0,0,.61,7.61Zm-7.67-6.68c4.21,0,6.87-3.83,6.87-7.61-1.43-.06-3-.18-4.7-.18-3.78,0-6.74,1.17-6.74,4.27C31.79,139.27,33.76,140.57,36.36,140.57Z"/><path class="cls-2" d="M62,100.87H73.16v46.38H62Z"/><path class="cls-3" d="M84.19,103.91h17.74l9,28.1H111l9.38-28.1h17.08v42.27h-11l.18-32.46h-.12l-10.78,32.46H105.38L95.09,113.72H95l.24,32.46h-11Z"/><path class="cls-3" d="M154,133.58c.61,4.36,3.94,6.06,9.27,6.06a20.51,20.51,0,0,0,9.63-2.42v7.69a31.7,31.7,0,0,1-11.57,2c-10.42,0-18.35-6.12-18.35-16.54s7.08-16.47,16.9-16.47c11.68,0,15.92,8.3,15.92,17.68v2Zm12-6.17c0-3.64-1.69-6.61-6.05-6.61-3.94,0-5.82,3-6.06,6.61Z"/><path class="cls-3" d="M215.42,146.18H205.36v-5.63h-.12c-1.39,3.51-5.81,6.36-10.84,6.36-9.38,0-14.41-7.76-14.41-17.08,0-7.75,4.78-15.93,13.5-15.93,4.36,0,8.06,1.15,10.85,4.78h.12V100.76h11Zm-17.57-7.63c3.64,0,6.67-3.45,6.67-8.06,0-4.78-2.67-8.23-6.67-8.23-4.23,0-6.6,3.63-6.6,7.81C191.25,135.1,193.74,138.55,197.85,138.55Z"/><path class="cls-3" d="M234.13,109.48h-10.9v-8h10.9Zm-10.9,5.15h10.9v31.55h-10.9Z"/><path class="cls-3" d="M266.89,123.65a12,12,0,0,0-6.6-1.76c-4.72,0-8.36,3.28-8.36,8.73,0,5,4.24,8.29,9,8.29a14.94,14.94,0,0,0,6.79-1.51l.24,8.11a29.41,29.41,0,0,1-8.9,1.4c-10.42,0-18.35-6.06-18.35-16.48S248.6,113.9,259,113.9a19.62,19.62,0,0,1,8.66,1.76Z"/><path class="cls-1" d="M77.43,88.64a81.2,81.2,0,0,1-21.84,3c-19.62,0-42.3-9.92-42.3-37.77,0-25.64,17.93-38.4,42.2-38.4,7.49,0,14.77,1.69,21.83,3.8L75.74,35.16A38.52,38.52,0,0,0,56.54,30c-13.93,0-23,10.12-23,23.84C33.54,68.28,43.78,77,58.12,77a51.77,51.77,0,0,0,18.36-3.8Z"/><path class="cls-1" d="M87.66,11.21h19V90.33h-19Z"/><path class="cls-1" d="M141.88,26.4h-19V12.47h19Zm-19,9h19v55h-19Z"/><path class="cls-1" d="M199,51.09A20.82,20.82,0,0,0,187.46,48c-8.23,0-14.56,5.69-14.56,15.19,0,8.75,7.38,14.45,15.61,14.45A26,26,0,0,0,200.33,75l.42,14.14a51.36,51.36,0,0,1-15.51,2.43c-18.15,0-32-10.55-32-28.7s13.82-28.8,32-28.8a34.14,34.14,0,0,1,15.09,3.06Z"/><path class="cls-1" d="M208.66,11.21h19V58.47h.21l15.82-23.1h20.79l-19.1,25.21,20.68,29.75h-23L227.86,63.11h-.21V90.33h-19Z"/></svg>